<svg xmlns="http://www.w3.org/2000/svg" viewBox="0 0 512 512">
  <path d="M 256 0 C 114.6 0 0 114.6 0 256 s 114.6 256 256 256 s 256 -114.6 256 -256 S 397.4 0 256 0 Z M 256 480 c -123.5 0 -224 -100.5 -224 -224 s 100.5 -224 224 -224 s 224 100.5 224 224 S 379.5 480 256 480 Z M 240 344 c -13.25 0 -24 10.75 -24 24 s 10.75 24 24 24 s 24 -10.75 24 -24 S 253.3 344 240 344 Z M 285.6 128 H 226.4 C 189.8 128 160 157.8 160 194.4 V 204 c 0 8.844 7.156 16 16 16 S 192 212.8 192 204 V 194.4 C 192 175.4 207.4 160 226.4 160 h 59.25 C 304.6 160 320 175.4 320 194.4 c 0 12.48 -6.781 24 -17.06 29.72 L 242.5 254.3 C 231.1 260.7 224 272.7 224 285.8 V 304 C 224 312.8 231.2 320 240 320 S 256 312.8 256 304 V 285.8 c 0 -1.453 0.7813 -2.797 1.438 -3.172 l 60.41 -30.22 C 338.9 240.7 352 218.5 352 194.4 C 352 157.8 322.2 128 285.6 128 Z" fill="#000000"/>
</svg>