<svg width="21" height="18" viewBox="0 0 21 18" fill="none" xmlns="http://www.w3.org/2000/svg">
<path d="M20.5241 1.98425C20.1943 2.13056 19.8551 2.25405 19.5085 2.35434C19.9188 1.89029 20.2316 1.34429 20.4226 0.746812C20.4654 0.612896 20.421 0.466307 20.3109 0.378697C20.201 0.291047 20.0482 0.280547 19.9272 0.352283C19.1912 0.788812 18.3971 1.10254 17.5645 1.28596C16.7258 0.46643 15.5866 0 14.409 0C11.9232 0 9.90086 2.02232 9.90086 4.50803C9.90086 4.70379 9.91325 4.8985 9.93777 5.09049C6.85315 4.81966 3.98542 3.30352 2.01618 0.887906C1.946 0.801814 1.83789 0.755385 1.72719 0.764285C1.61644 0.772939 1.5169 0.835406 1.46095 0.931424C1.06154 1.61675 0.850394 2.4006 0.850394 3.19815C0.850394 4.28441 1.2382 5.31501 1.92328 6.12035C1.71496 6.0482 1.51284 5.95805 1.3199 5.85096C1.21634 5.79329 1.08993 5.79419 0.987017 5.85317C0.884068 5.9122 0.81951 6.02068 0.816762 6.1393C0.816269 6.15927 0.816269 6.17925 0.816269 6.19951C0.816269 7.8209 1.68892 9.28069 3.02311 10.0763C2.90848 10.0649 2.79396 10.0483 2.68014 10.0265C2.5628 10.0041 2.44217 10.0452 2.36305 10.1347C2.28381 10.2241 2.25756 10.3488 2.2941 10.4626C2.78793 12.0044 4.05937 13.1385 5.59643 13.4842C4.32159 14.2827 2.86373 14.7009 1.33331 14.7009C1.01396 14.7009 0.692812 14.6822 0.37851 14.645C0.222363 14.6264 0.0730665 14.7186 0.0198692 14.8671C-0.033328 15.0157 0.0230685 15.1813 0.155877 15.2665C2.12196 16.5271 4.39529 17.1934 6.73002 17.1934C11.3198 17.1934 14.1911 15.029 15.7914 13.2133C17.7871 10.9493 18.9317 7.95264 18.9317 4.99172C18.9317 4.86802 18.9298 4.74313 18.926 4.6186C19.7134 4.0254 20.3912 3.30746 20.9428 2.48231C21.0266 2.357 21.0176 2.19134 20.9205 2.07601C20.8236 1.96046 20.662 1.92314 20.5241 1.98425Z" fill="#030135"/>
</svg>
