<svg width="30" height="30" viewBox="0 0 30 30" fill="none" xmlns="http://www.w3.org/2000/svg">
<path d="M19.1861 9.32259L5.0634 23.4564C4.65343 23.8666 4.65343 24.5338 5.0634 24.9439C5.26533 25.1459 5.53457 25.2499 5.80381 25.2499C6.07304 25.2499 6.34228 25.1459 6.54421 24.9439L20.6669 10.8162C21.0769 10.406 21.0769 9.73883 20.6669 9.32871C20.2631 8.91247 19.5961 8.91247 19.1861 9.32259Z" fill="#F6643C"/>
<path d="M26.3821 11.7405C26.6514 11.7405 26.9206 11.6364 27.1225 11.4344L28.6645 9.89186C30.4452 8.11059 30.4452 5.21526 28.6645 3.44011L26.5596 1.33442C25.6968 0.471332 24.5525 0 23.3348 0C22.1172 0 20.9729 0.477454 20.1101 1.33442L18.5681 2.87696C18.1581 3.28708 18.1581 3.9543 18.5681 4.36442L25.6417 11.4405C25.8436 11.6364 26.1129 11.7405 26.3821 11.7405ZM21.597 2.80963C22.0621 2.34442 22.6801 2.08733 23.341 2.08733C23.9957 2.08733 24.6198 2.34442 25.0849 2.80963L27.1898 4.91532C28.1505 5.87635 28.1505 7.43726 27.1898 8.39829L26.3821 9.20628L20.7893 3.61151L21.597 2.80963Z" fill="#F6643C"/>
<path d="M9.96475 28.5921L24.8646 13.687C25.2746 13.2769 25.2746 12.6097 24.8646 12.1995C24.4546 11.7894 23.7876 11.7894 23.3777 12.1995L8.73482 26.8598L2.27312 27.729L3.14203 21.265L17.1301 7.27199C17.5401 6.86187 17.5401 6.19465 17.1301 5.78453C16.7202 5.37441 16.0532 5.37441 15.6432 5.78453L1.41034 20.0347C1.24513 20.2 1.1411 20.4081 1.11051 20.6346L0.00908075 28.8125C-0.0337525 29.1369 0.0763901 29.4613 0.308913 29.6939C0.504723 29.8898 0.77396 30 1.04932 30C1.09827 30 1.1411 29.9939 1.19005 29.9878L9.36508 28.8859C9.59149 28.8615 9.80566 28.7574 9.96475 28.5921Z" fill="#F6643C"/>
</svg>
