<svg width="21" height="21" viewBox="0 0 21 21" fill="none" xmlns="http://www.w3.org/2000/svg">
<path d="M4.88826 6.7328H0.672474C0.485371 6.7328 0.333765 6.88448 0.333765 7.07151V20.615C0.333765 20.8021 0.485371 20.9537 0.672474 20.9537H4.88826C5.07536 20.9537 5.22697 20.8021 5.22697 20.615V7.07151C5.22697 6.88448 5.07536 6.7328 4.88826 6.7328Z" fill="#F6643C"/>
<path d="M2.78189 0C1.24794 0 0 1.24659 0 2.77884C0 4.31177 1.24794 5.55884 2.78189 5.55884C4.31462 5.55884 5.56155 4.31171 5.56155 2.77884C5.56161 1.24659 4.31462 0 2.78189 0Z" fill="#F6643C"/>
<path d="M15.6114 6.39619C13.9182 6.39619 12.6665 7.12408 11.9073 7.95114V7.07151C11.9073 6.88448 11.7557 6.7328 11.5686 6.7328H7.53128C7.34417 6.7328 7.19257 6.88448 7.19257 7.07151V20.615C7.19257 20.8021 7.34417 20.9537 7.53128 20.9537H11.7378C11.925 20.9537 12.0766 20.8021 12.0766 20.615V13.9141C12.0766 11.6561 12.6899 10.7764 14.2639 10.7764C15.9782 10.7764 16.1145 12.1866 16.1145 14.0303V20.6151C16.1145 20.8022 16.2661 20.9538 16.4532 20.9538H20.6613C20.8484 20.9538 21 20.8022 21 20.6151V13.1862C21 9.82861 20.3598 6.39619 15.6114 6.39619Z" fill="#F6643C"/>
</svg>
