<svg width="32" height="46" viewBox="0 0 32 46" fill="none" xmlns="http://www.w3.org/2000/svg">
<path d="M18.8695 1.00124C18.7993 1.57338 18.7525 2.02632 18.7759 2.05016C18.7993 2.074 19.1973 2.14551 19.6656 2.24087C20.5085 2.3839 20.5085 2.3839 20.6724 1.43034C20.8597 0.190712 20.7427 0 19.7827 0C19.0334 0 18.9866 0.0476781 18.8695 1.00124Z" fill="#F1F1F9"/>
<path d="M17.652 3.57585L16.973 4.31486L17.652 4.887L18.3544 5.4353L18.8929 4.93468C19.4081 4.4579 20.1105 3.31362 20.1105 2.97988C20.1105 2.90836 19.7124 2.86068 19.2207 2.86068C18.5183 2.86068 18.1671 3.02756 17.652 3.57585Z" fill="#F1F1F9"/>
<path d="M15.6618 5.38762C15.2169 5.57833 14.8188 5.79288 14.7486 5.84056C14.6315 5.98359 15.8491 7.15171 16.0832 7.15171C16.1769 7.15171 16.6686 6.86564 17.1603 6.50805L18.0734 5.88824L17.5583 5.4353C16.9027 4.91084 16.7388 4.91084 15.6618 5.38762Z" fill="#F1F1F9"/>
<path d="M12.852 6.69876C12.0325 7.03251 12.0325 7.05635 12.6647 7.84304L13.2501 8.53437L14.2335 8.10527C15.3339 7.58081 15.4042 7.34242 14.6783 6.81796C14.093 6.38885 13.6949 6.36502 12.852 6.69876Z" fill="#F1F1F9"/>
<path d="M9.97205 7.91455L9.33986 8.15294L10.8384 9.58328L11.775 9.13034L12.6881 8.65356L12.1964 8.15294C11.6345 7.5808 11.0023 7.53313 9.97205 7.91455Z" fill="#F1F1F9"/>
<path d="M7.53695 9.10651C6.975 9.39258 6.8111 9.774 7.27939 9.774C7.41987 9.774 7.74768 9.94087 7.95841 10.1554C8.33304 10.4892 8.49694 10.513 9.15254 10.2508C10.1828 9.82168 10.1828 9.84552 9.69107 9.29722C9.22278 8.77276 8.35645 8.70124 7.53695 9.10651Z" fill="#F1F1F9"/>
<path d="M5.89794 10.4892C5.61697 10.6084 5.26575 10.9421 5.12526 11.2043C4.89112 11.6573 4.89112 11.705 5.31258 11.5858C5.57014 11.4904 6.01501 11.5381 6.3194 11.6573C6.76427 11.8242 7.02183 11.7526 7.4667 11.3951C8.02865 10.9421 8.02865 10.9183 7.58378 10.5845C7.09207 10.2031 6.6472 10.1793 5.89794 10.4892Z" fill="#F1F1F9"/>
<path d="M4.5399 12.7539C4.2121 13.0638 3.95454 13.5882 3.95454 13.8982V14.4941L4.84429 14.0412C6.29598 13.2783 6.8111 12.1579 5.71062 12.1579C5.38282 12.1579 4.84429 12.4201 4.5399 12.7539Z" fill="#F1F1F9"/>
<path d="M4.68039 14.9232C4.11844 15.6622 4.07161 15.9483 4.46966 16.8065L4.72722 17.4025L5.35941 16.6635C5.80428 16.0913 5.94477 15.7099 5.87452 15.1139C5.75745 14.1365 5.33599 14.065 4.68039 14.9232Z" fill="#F1F1F9"/>
<path d="M12.173 14.804C11.6579 15.0186 11.6579 15.0663 11.9857 15.5669C12.2432 15.9722 12.571 16.1152 13.6013 16.1629L14.8657 16.2344L14.772 15.3762C14.6783 14.5656 14.6549 14.5418 13.6949 14.5656C13.1798 14.5656 12.4774 14.6848 12.173 14.804Z" fill="#F1F1F9"/>
<path d="M15.2871 14.8994C15.0764 15.4477 15.8022 16.4013 16.7388 16.8065C17.2071 16.9972 17.6286 17.1641 17.652 17.1641C17.7222 17.1641 18.2373 15.7576 18.2373 15.5669C18.2373 15.4477 16.8559 14.8756 16.0598 14.6848C15.5915 14.5656 15.3808 14.6372 15.2871 14.8994Z" fill="#F1F1F9"/>
<path d="M9.83156 15.7576C9.0823 16.2105 9.05888 16.2582 9.45693 16.7112C9.92522 17.2118 10.8384 17.2833 11.6111 16.8542L12.1028 16.5681L11.5642 15.9006C10.8852 15.1378 10.8384 15.1139 9.83156 15.7576Z" fill="#F1F1F9"/>
<path d="M18.4481 16.7112C18.2373 17.1403 18.2842 17.4502 18.729 18.4037C19.01 19.0235 19.3144 19.5242 19.3846 19.4765C19.4549 19.4526 19.8061 19.2619 20.1807 19.0951C20.9534 18.6898 20.9768 18.4276 20.2276 17.4025C19.291 16.0913 18.8695 15.9245 18.4481 16.7112Z" fill="#F1F1F9"/>
<path d="M5.59355 17.3071C5.45306 17.6409 5.45306 18.07 5.54672 18.2845C5.73404 18.5944 5.82769 18.5468 6.24915 17.9985C6.76427 17.331 6.71744 16.6873 6.1555 16.6873C5.96818 16.6873 5.71062 16.9734 5.59355 17.3071Z" fill="#F1F1F9"/>
<path d="M7.32622 17.927C6.27257 19.0712 6.24916 19.1666 6.6472 19.4526C7.18573 19.8579 7.34963 19.8579 8.00524 19.5003C8.49694 19.2381 9.80815 18.0223 9.80815 17.8316C9.80815 17.7839 9.50376 17.4979 9.12913 17.2118L8.45011 16.7112L7.32622 17.927Z" fill="#F1F1F9"/>
<path d="M12.0325 18.07C9.9018 19.0951 10.2062 19.6195 13.0627 19.8818C15.0296 20.0486 15.6617 20.4539 15.6617 21.479C15.6617 22.4564 15.451 22.8616 14.6549 23.2669C13.8354 23.696 12.6179 23.5768 10.5808 22.8616C9.85497 22.6232 9.22279 22.4564 9.15254 22.5279C9.10571 22.5756 9.29303 23.1477 9.59741 23.7675C10.2764 25.1502 11.3301 25.8177 13.0862 25.9845C14.9359 26.1514 14.8657 26.6044 12.7115 27.8917C9.36327 29.918 7.04524 32.8025 6.8111 35.2818C6.71744 36.2353 6.92817 36.879 8.19255 39.9304C9.01206 41.8852 9.9018 43.7685 10.2062 44.1022C11.3301 45.4849 14.5144 46.2716 17.3944 45.914C19.2676 45.6756 19.0334 45.2942 17.1134 45.461C15.9661 45.5564 15.1232 45.4849 14.1164 45.1988C12.4071 44.6743 11.775 44.2929 11.213 43.3155C10.2296 41.6945 10.9086 39.5966 13.1564 37.3319C17.1369 33.2555 24.2548 31.0861 28.3992 32.6833C30.1319 33.327 30.8811 34.2567 30.8811 35.7109C30.8811 37.2127 30.2489 38.3808 28.3524 40.3595C27.3455 41.3846 26.9475 41.9567 27.1816 41.9567C27.7904 41.9567 30.7172 38.8815 31.326 37.5942C32.3094 35.5202 32.2626 34.7811 30.8811 31.4437C28.6333 25.9845 28.2353 25.5078 25.1446 24.8641C23.5992 24.5542 22.9905 24.5304 21.3514 24.7688C20.2744 24.9356 18.7525 25.2455 18.0032 25.4839C16.6452 25.913 16.6217 25.913 16.4813 25.4601C16.3642 25.1502 16.5515 24.7926 17.0432 24.2681C18.7993 22.4564 18.5651 19.8102 16.5281 18.2607C15.6149 17.5694 13.2735 17.474 12.0325 18.07Z" fill="#F1F1F9"/>
<path d="M20.1573 19.7864C19.1271 20.7638 19.8295 22.6471 20.9066 21.8604C21.211 21.6458 21.3046 21.2883 21.2344 20.5016C21.1407 19.2858 20.8832 19.1189 20.1573 19.7864Z" fill="#F1F1F9"/>
<path d="M8.5906 20.144C8.07548 20.8592 8.07548 20.9068 8.61401 21.1929C9.01206 21.4313 9.05888 21.3359 9.15254 20.5016C9.2462 19.405 9.15254 19.3335 8.5906 20.144Z" fill="#F1F1F9"/>
<path d="M4.91453 20.5254C4.35259 21.0737 4.2121 21.3359 4.39942 21.5266C4.8677 22.0034 6.24915 21.8366 6.88134 21.2167C7.60719 20.5254 7.60719 20.3585 6.90476 20.1678C6.60037 20.0963 6.20233 19.9771 6.01501 19.9056C5.85111 19.8579 5.35941 20.1201 4.91453 20.5254Z" fill="#F1F1F9"/>
<path d="M9.71449 20.2393C9.52717 20.5254 9.9018 21.5266 10.3233 21.8842C10.5106 22.0273 11.0257 22.2418 11.4472 22.3133C12.1496 22.4802 12.1964 22.4564 11.9389 21.9796C11.7984 21.7174 11.6813 21.2644 11.6813 21.026C11.6813 20.3824 10.0189 19.7387 9.71449 20.2393Z" fill="#F1F1F9"/>
<path d="M12.3837 21.2883C12.3837 22.1226 13.1096 22.6948 14.0696 22.5994C14.6549 22.5517 14.8657 22.4087 14.9125 22.0273C15.0061 21.3836 14.6081 21.0737 13.3905 20.8592C12.4306 20.7161 12.3837 20.74 12.3837 21.2883Z" fill="#F1F1F9"/>
<path d="M2.61992 21.9796C1.1214 22.7186 2.99455 23.7914 4.5399 23.0762C5.28916 22.7424 5.28916 22.6232 4.39942 22.0988C3.57991 21.6458 3.34577 21.622 2.61992 21.9796Z" fill="#F1F1F9"/>
<path d="M0.629695 22.5994C-0.0493223 22.6709 -0.119565 22.8616 0.137993 23.8152C0.255065 24.3158 0.372137 24.3635 1.30871 24.2443C1.87066 24.1966 2.38578 24.0774 2.45602 24.0297C2.50285 23.9582 2.2687 23.6006 1.91749 23.2192C1.4492 22.7186 1.07457 22.5517 0.629695 22.5994Z" fill="#F1F1F9"/>
<path d="M23.0373 33.7799C17.0198 35.1387 11.4706 39.6443 12.6881 42.1474C13.812 44.5075 18.4247 44.3883 23.5056 41.8613C28.8675 39.1675 30.647 35.5678 27.4392 33.8753C26.9475 33.613 24.0207 33.5415 23.0373 33.7799ZM27.7202 35.3294C28.4694 36.2353 28.2587 36.8075 26.5729 38.5C24.0909 40.9793 19.8998 42.7434 16.4578 42.7672C14.8891 42.7911 14.4442 42.7195 14.0462 42.3381C11.5642 40.0496 19.9934 34.3997 25.5895 34.6381C26.9943 34.6858 27.2519 34.7811 27.7202 35.3294Z" fill="#F1F1F9"/>
<path d="M20.7427 38.0233C19.8529 38.3332 18.7056 39.239 18.7056 39.6205C18.7056 39.9065 19.6656 39.8589 20.6022 39.549C21.5154 39.2391 22.9202 38.2378 22.9202 37.8802C22.9202 37.5703 21.7963 37.6418 20.7427 38.0233Z" fill="#F1F1F9"/>
</svg>
