<svg width="36" height="36" viewBox="0 0 36 36" fill="none" xmlns="http://www.w3.org/2000/svg">
<mask id="path-1-outside-1_51_304" maskUnits="userSpaceOnUse" x="0" y="0" width="36" height="36" fill="black">
<rect fill="white" width="36" height="36"/>
<path d="M3 18C3 9.71573 9.71573 3 18 3C26.2843 3 33 9.71573 33 18C33 26.2843 26.2843 33 18 33C9.71573 33 3 26.2843 3 18Z"/>
<path d="M20.8003 25.787C21.0665 25.503 21.0666 25.0425 20.8003 24.7585L14.4642 18.0002L20.8003 11.2415C21.0665 10.9576 21.0666 10.497 20.8003 10.213C20.534 9.92899 20.1023 9.92899 19.836 10.213L13.0179 17.4859C12.89 17.6223 12.8182 17.8073 12.8182 18.0002C12.8182 18.193 12.89 18.378 13.0179 18.5144L19.8361 25.7869C20.1023 26.071 20.534 26.071 20.8003 25.787Z"/>
</mask>
<path d="M3 18C3 9.71573 9.71573 3 18 3C26.2843 3 33 9.71573 33 18C33 26.2843 26.2843 33 18 33C9.71573 33 3 26.2843 3 18Z" fill="#F6643C"/>
<path d="M20.8003 25.787C21.0665 25.503 21.0666 25.0425 20.8003 24.7585L14.4642 18.0002L20.8003 11.2415C21.0665 10.9576 21.0666 10.497 20.8003 10.213C20.534 9.92899 20.1023 9.92899 19.836 10.213L13.0179 17.4859C12.89 17.6223 12.8182 17.8073 12.8182 18.0002C12.8182 18.193 12.89 18.378 13.0179 18.5144L19.8361 25.7869C20.1023 26.071 20.534 26.071 20.8003 25.787Z" fill="#FAFAFA"/>
<path d="M20.8003 25.787L22.9889 27.8388L20.8003 25.787ZM20.8003 24.7585L18.6117 26.8103L18.612 26.8106L20.8003 24.7585ZM14.4642 18.0002L12.2756 15.9483L10.352 18.0002L12.2756 20.052L14.4642 18.0002ZM20.8003 11.2415L18.6117 9.1897L18.6117 9.18972L20.8003 11.2415ZM20.8003 10.213L18.6116 12.2648L18.612 12.2652L20.8003 10.213ZM19.836 10.213L22.0247 12.2648L22.0248 12.2647L19.836 10.213ZM13.0179 17.4859L15.2065 19.5378L15.2065 19.5377L13.0179 17.4859ZM13.0179 18.5144L15.2065 16.4625L15.2063 16.4623L13.0179 18.5144ZM19.8361 25.7869L22.025 23.7354L22.0247 23.7351L19.8361 25.7869ZM6 18C6 11.3726 11.3726 6 18 6L18 0C8.05887 0 0 8.05887 0 18L6 18ZM18 6C24.6274 6 30 11.3726 30 18H36C36 8.05887 27.9411 0 18 0L18 6ZM30 18C30 24.6274 24.6274 30 18 30V36C27.9411 36 36 27.9411 36 18H30ZM18 30C11.3726 30 6 24.6274 6 18L0 18C0 27.9411 8.05887 36 18 36V30ZM22.9889 27.8388C24.3368 26.401 24.3374 24.1446 22.9885 22.7063L18.612 26.8106C17.7958 25.9404 17.7963 24.605 18.6117 23.7351L22.9889 27.8388ZM22.9889 22.7066L16.6528 15.9483L12.2756 20.052L18.6117 26.8103L22.9889 22.7066ZM16.6529 20.052L22.989 13.2933L18.6117 9.18972L12.2756 15.9483L16.6529 20.052ZM22.9889 13.2933C24.3368 11.8556 24.3374 9.59911 22.9885 8.16084L18.612 12.2652C17.7958 11.3949 17.7963 10.0595 18.6117 9.1897L22.9889 13.2933ZM22.9889 8.1612C21.5374 6.613 19.0989 6.61282 17.6473 8.16132L22.0248 12.2647C21.1057 13.2452 19.5305 13.245 18.6116 12.2648L22.9889 8.1612ZM17.6474 8.16123L10.8292 15.4341L15.2065 19.5377L22.0247 12.2648L17.6474 8.16123ZM10.8293 15.4341C10.1621 16.1457 9.81818 17.0718 9.81818 18.0002L15.8182 18.0002C15.8182 18.5427 15.6179 19.0989 15.2065 19.5378L10.8293 15.4341ZM9.81818 18.0002C9.81818 18.9286 10.1622 19.8548 10.8295 20.5664L15.2063 16.4623C15.6179 16.9012 15.8182 17.4574 15.8182 18.0002L9.81818 18.0002ZM10.8293 20.5662L17.6475 27.8388L22.0247 23.7351L15.2065 16.4625L10.8293 20.5662ZM17.6471 27.8384C19.0987 29.3872 21.5374 29.387 22.9889 27.8388L18.6117 23.7351C19.5306 22.755 21.106 22.7548 22.025 23.7354L17.6471 27.8384Z" fill="#1A175E" mask="url(#path-1-outside-1_51_304)"/>
</svg>
