<svg width="36" height="36" viewBox="0 0 36 36" fill="none" xmlns="http://www.w3.org/2000/svg">
<mask id="path-1-outside-1_51_352" maskUnits="userSpaceOnUse" x="0" y="0" width="36" height="36" fill="black">
<rect fill="white" width="36" height="36"/>
<path d="M33 18C33 26.2843 26.2843 33 18 33C9.71573 33 3 26.2843 3 18C3 9.71573 9.71573 3 18 3C26.2843 3 33 9.71573 33 18Z"/>
<path d="M15.1997 10.213C14.9335 10.497 14.9334 10.9575 15.1997 11.2415L21.5358 17.9998L15.1997 24.7585C14.9335 25.0424 14.9334 25.503 15.1997 25.787C15.466 26.071 15.8977 26.071 16.164 25.787L22.9821 18.5141C23.11 18.3777 23.1818 18.1927 23.1818 17.9998C23.1818 17.807 23.11 17.622 22.9821 17.4856L16.1639 10.2131C15.8977 9.929 15.466 9.929 15.1997 10.213Z"/>
</mask>
<path d="M33 18C33 26.2843 26.2843 33 18 33C9.71573 33 3 26.2843 3 18C3 9.71573 9.71573 3 18 3C26.2843 3 33 9.71573 33 18Z" fill="#F6643C"/>
<path d="M15.1997 10.213C14.9335 10.497 14.9334 10.9575 15.1997 11.2415L21.5358 17.9998L15.1997 24.7585C14.9335 25.0424 14.9334 25.503 15.1997 25.787C15.466 26.071 15.8977 26.071 16.164 25.787L22.9821 18.5141C23.11 18.3777 23.1818 18.1927 23.1818 17.9998C23.1818 17.807 23.11 17.622 22.9821 17.4856L16.1639 10.2131C15.8977 9.929 15.466 9.929 15.1997 10.213Z" fill="#FAFAFA"/>
<path d="M15.1997 10.213L13.0111 8.16121L15.1997 10.213ZM15.1997 11.2415L17.3883 9.18969L17.388 9.18935L15.1997 11.2415ZM21.5358 17.9998L23.7244 20.0517L25.648 17.9998L23.7244 15.948L21.5358 17.9998ZM15.1997 24.7585L17.3883 26.8103L17.3883 26.8103L15.1997 24.7585ZM15.1997 25.787L17.3884 23.7352L17.388 23.7348L15.1997 25.787ZM16.164 25.787L13.9753 23.7352L13.9752 23.7353L16.164 25.787ZM22.9821 18.5141L20.7935 16.4622L20.7935 16.4623L22.9821 18.5141ZM22.9821 17.4856L20.7935 19.5375L20.7937 19.5377L22.9821 17.4856ZM16.1639 10.2131L13.975 12.2646L13.9753 12.2649L16.1639 10.2131ZM30 18C30 24.6274 24.6274 30 18 30V36C27.9411 36 36 27.9411 36 18H30ZM18 30C11.3726 30 6 24.6274 6 18H0C0 27.9411 8.05887 36 18 36V30ZM6 18C6 11.3726 11.3726 6 18 6V0C8.05887 0 0 8.05887 0 18H6ZM18 6C24.6274 6 30 11.3726 30 18H36C36 8.05887 27.9411 0 18 0V6ZM13.0111 8.16121C11.6632 9.59896 11.6626 11.8554 13.0115 13.2937L17.388 9.18935C18.2042 10.0596 18.2037 11.395 17.3883 12.2649L13.0111 8.16121ZM13.0111 13.2934L19.3472 20.0517L23.7244 15.948L17.3883 9.18969L13.0111 13.2934ZM19.3471 15.948L13.011 22.7067L17.3883 26.8103L23.7244 20.0517L19.3471 15.948ZM13.0111 22.7067C11.6632 24.1444 11.6626 26.4009 13.0115 27.8392L17.388 23.7348C18.2042 24.6051 18.2037 25.9405 17.3883 26.8103L13.0111 22.7067ZM13.0111 27.8388C14.4626 29.387 16.9011 29.3872 18.3527 27.8387L13.9752 23.7353C14.8943 22.7548 16.4695 22.755 17.3884 23.7352L13.0111 27.8388ZM18.3526 27.8388L25.1708 20.5659L20.7935 16.4623L13.9753 23.7352L18.3526 27.8388ZM25.1707 20.5659C25.8379 19.8543 26.1818 18.9282 26.1818 17.9998H20.1818C20.1818 17.4573 20.3821 16.9011 20.7935 16.4622L25.1707 20.5659ZM26.1818 17.9998C26.1818 17.0714 25.8378 16.1452 25.1705 15.4336L20.7937 19.5377C20.3821 19.0988 20.1818 18.5426 20.1818 17.9998H26.1818ZM25.1707 15.4338L18.3525 8.16124L13.9753 12.2649L20.7935 19.5375L25.1707 15.4338ZM18.3529 8.16163C16.9013 6.61281 14.4626 6.61296 13.0111 8.16121L17.3883 12.2649C16.4694 13.245 14.894 13.2452 13.975 12.2646L18.3529 8.16163Z" fill="#1A175E" mask="url(#path-1-outside-1_51_352)"/>
</svg>
