<svg width="36" height="34" viewBox="0 0 36 34" fill="none" xmlns="http://www.w3.org/2000/svg">
<path d="M13.6668 30.3333H3.66683C2.78308 30.3323 1.93582 29.9808 1.31092 29.3559C0.68602 28.731 0.334506 27.8837 0.333496 27V7C0.334506 6.11626 0.68602 5.269 1.31092 4.6441C1.93582 4.01919 2.78308 3.66768 3.66683 3.66667H13.6668C14.1089 3.66667 14.5328 3.84226 14.8453 4.15482C15.1579 4.46739 15.3335 4.89131 15.3335 5.33334C15.3335 5.77536 15.1579 6.19929 14.8453 6.51185C14.5328 6.82441 14.1089 7 13.6668 7H3.66683V27H13.6668C14.1089 27 14.5328 27.1756 14.8453 27.4882C15.1579 27.8007 15.3335 28.2246 15.3335 28.6667C15.3335 29.1087 15.1579 29.5326 14.8453 29.8452C14.5328 30.1577 14.1089 30.3333 13.6668 30.3333Z" fill="white"/>
<path d="M18.6668 33.6667C18.2249 33.6665 17.8011 33.4908 17.4886 33.1783C17.176 32.8658 17.0004 32.442 17.0002 32V2C17.0002 1.74674 17.058 1.49682 17.1691 1.26923C17.2802 1.04164 17.4417 0.842371 17.6414 0.686562C17.8411 0.530753 18.0736 0.422504 18.3214 0.370039C18.5691 0.317575 18.8256 0.322277 19.0713 0.383786L32.4046 3.71712C32.7651 3.80721 33.0851 4.0152 33.3138 4.30805C33.5425 4.60089 33.6668 4.96177 33.6668 5.33334V10.68C33.6668 11.122 33.4912 11.546 33.1787 11.8585C32.8661 12.1711 32.4422 12.3467 32.0002 12.3467C31.5581 12.3467 31.1342 12.1711 30.8217 11.8585C30.5091 11.546 30.3335 11.122 30.3335 10.68V6.63542L20.3335 4.13542V29.8646L30.3335 27.3646V17.3467C30.3335 16.9046 30.5091 16.4807 30.8217 16.1682C31.1342 15.8556 31.5581 15.68 32.0002 15.68C32.4422 15.68 32.8661 15.8556 33.1787 16.1682C33.4912 16.4807 33.6668 16.9046 33.6668 17.3467V28.6667C33.6668 29.0382 33.5425 29.3991 33.3138 29.692C33.0851 29.9848 32.7651 30.1928 32.4046 30.2829L19.0713 33.6162C18.9391 33.6499 18.8032 33.6669 18.6668 33.6667Z" fill="white"/>
<path d="M25.3335 20.3333C25.1146 20.3334 24.8979 20.2903 24.6956 20.2066C24.4934 20.1228 24.3096 20.0001 24.1549 19.8453C24.0001 19.6905 23.8773 19.5068 23.7936 19.3045C23.7098 19.1023 23.6668 18.8856 23.6668 18.6667V15.3333C23.6668 14.8913 23.8424 14.4674 24.155 14.1548C24.4675 13.8423 24.8915 13.6667 25.3335 13.6667C25.7755 13.6667 26.1994 13.8423 26.512 14.1548C26.8246 14.4674 27.0002 14.8913 27.0002 15.3333V18.6667C27.0002 18.8856 26.9571 19.1023 26.8734 19.3045C26.7897 19.5068 26.6669 19.6905 26.5121 19.8453C26.3574 20.0001 26.1736 20.1228 25.9714 20.2066C25.7691 20.2903 25.5524 20.3334 25.3335 20.3333Z" fill="white"/>
<path d="M33.6668 12.4167H32.0002C31.5581 12.4167 31.1342 12.2411 30.8216 11.9285C30.5091 11.616 30.3335 11.192 30.3335 10.75C30.3335 10.308 30.5091 9.88405 30.8216 9.57149C31.1342 9.25893 31.5581 9.08334 32.0002 9.08334H33.6668C34.1089 9.08334 34.5328 9.25893 34.8453 9.57149C35.1579 9.88405 35.3335 10.308 35.3335 10.75C35.3335 11.192 35.1579 11.616 34.8453 11.9285C34.5328 12.2411 34.1089 12.4167 33.6668 12.4167Z" fill="white"/>
<path d="M33.6668 25.3333H32.0002C31.5581 25.3333 31.1342 25.1577 30.8216 24.8452C30.5091 24.5326 30.3335 24.1087 30.3335 23.6667C30.3335 23.2246 30.5091 22.8007 30.8216 22.4882C31.1342 22.1756 31.5581 22 32.0002 22H33.6668C34.1089 22 34.5328 22.1756 34.8453 22.4882C35.1579 22.8007 35.3335 23.2246 35.3335 23.6667C35.3335 24.1087 35.1579 24.5326 34.8453 24.8452C34.5328 25.1577 34.1089 25.3333 33.6668 25.3333Z" fill="white"/>
<path d="M13.6668 23.6667H8.66683C8.2248 23.6667 7.80088 23.4911 7.48832 23.1785C7.17576 22.866 7.00016 22.442 7.00016 22C7.00016 21.558 7.17576 21.1341 7.48832 20.8215C7.80088 20.5089 8.2248 20.3333 8.66683 20.3333H13.6668C14.1089 20.3333 14.5328 20.5089 14.8453 20.8215C15.1579 21.1341 15.3335 21.558 15.3335 22C15.3335 22.442 15.1579 22.866 14.8453 23.1785C14.5328 23.4911 14.1089 23.6667 13.6668 23.6667Z" fill="white"/>
</svg>
