<svg width="28" height="40" viewBox="0 0 28 40" fill="none" xmlns="http://www.w3.org/2000/svg">
<path d="M7.82975 11.8763V8.7234C7.82975 5.32111 10.5977 2.55319 14 2.55319C17.4023 2.55319 20.1702 5.32111 20.1702 8.7234V11.8763C20.1841 11.8821 20.1982 11.8875 20.2121 11.8934C21.0927 12.2658 21.9309 12.7135 22.7234 13.2316V8.7234C22.7234 3.91328 18.8101 0 14 0C9.18983 0 5.27655 3.91328 5.27655 8.7234V13.2315C6.06898 12.7135 6.90728 12.2658 7.78779 11.8933C7.80175 11.8875 7.81579 11.8821 7.82975 11.8763Z" fill="white"/>
<path d="M14 13.1915C6.59698 13.1915 0.595703 19.1928 0.595703 26.5957C0.595703 33.9987 6.59698 40 14 40C21.4029 40 27.4042 33.9987 27.4042 26.5957C27.4042 19.1928 21.4029 13.1915 14 13.1915ZM15.2766 27.2815V31.8396H12.7234V27.2815C11.7171 26.8034 11.0212 25.778 11.0212 24.5899C11.0212 22.9448 12.3548 21.6111 14 21.6111C15.6451 21.6111 16.9787 22.9448 16.9787 24.5899C16.9787 25.778 16.2828 26.8035 15.2766 27.2815Z" fill="white"/>
</svg>
