<svg width="23" height="24" viewBox="0 0 23 24" fill="none" xmlns="http://www.w3.org/2000/svg">
<path d="M11.0115 1.23714L10.2257 0.618655L10.2256 0.618787L11.0115 1.23714ZM11.9885 1.23714L12.7744 0.618789L12.7743 0.618655L11.9885 1.23714ZM13.8618 3.618L13.0759 4.23635L13.076 4.2365L13.8618 3.618ZM14.5197 3.83162L14.7922 4.79378L14.7922 4.79377L14.5197 3.83162ZM17.4357 3.00575L17.1632 2.04358L17.1632 2.0436L17.4357 3.00575ZM18.2261 3.57957L17.2268 3.61742L17.2268 3.61756L18.2261 3.57957ZM18.3412 6.60603L17.3419 6.64402L17.3419 6.6443L18.3412 6.60603ZM18.7479 7.16528L19.0925 6.22657L19.0924 6.22653L18.7479 7.16528ZM21.5927 8.20987L21.9373 7.27116L21.5927 8.20987ZM21.8946 9.13834L21.064 8.58133L21.064 8.58142L21.8946 9.13834ZM20.2075 11.6544L19.3769 11.0974L19.3769 11.0975L20.2075 11.6544ZM20.2075 12.3457L19.3769 12.9025L19.3769 12.9026L20.2075 12.3457ZM21.8946 14.8617L21.064 15.4186L21.064 15.4187L21.8946 14.8617ZM21.5927 15.7902L21.9374 16.7289L21.9375 16.7288L21.5927 15.7902ZM18.7479 16.8348L19.0924 17.7735L19.0925 17.7735L18.7479 16.8348ZM18.3412 17.394L17.3419 17.3558L17.3419 17.356L18.3412 17.394ZM18.2261 20.4204L17.2268 20.3824L17.2268 20.3826L18.2261 20.4204ZM17.4357 20.9943L17.7082 20.0321H17.7082L17.4357 20.9943ZM14.5197 20.1684L14.2469 21.1305L14.2472 21.1306L14.5197 20.1684ZM13.8618 20.382L13.076 19.7635L13.0759 19.7637L13.8618 20.382ZM11.9885 22.7629L12.7743 23.3814L12.7744 23.3812L11.9885 22.7629ZM11.0115 22.7629L10.2256 23.3812L10.2257 23.3814L11.0115 22.7629ZM9.13821 20.382L9.92411 19.7637L9.92408 19.7636L9.13821 20.382ZM8.48029 20.1684L8.75278 21.1306L8.75306 21.1305L8.48029 20.1684ZM5.56428 20.9943L5.29179 20.0321L5.29173 20.0321L5.56428 20.9943ZM4.77391 20.4204L5.77318 20.3825L5.77318 20.3824L4.77391 20.4204ZM4.65883 17.394L5.6581 17.356L5.6581 17.356L4.65883 17.394ZM4.2522 16.8348L4.59689 15.8961L4.59689 15.8961L4.2522 16.8348ZM1.40732 15.7902L1.06253 16.7288L1.06263 16.7289L1.40732 15.7902ZM1.10543 14.8617L0.274871 14.3047L0.274858 14.3048L1.10543 14.8617ZM2.79253 12.3457L3.62309 12.9026L3.62313 12.9025L2.79253 12.3457ZM2.79253 11.6544L3.62313 11.0975L3.6231 11.0974L2.79253 11.6544ZM1.10543 9.13834L0.274866 9.69526L0.274869 9.69526L1.10543 9.13834ZM1.40732 8.20987L1.06264 7.27115H1.06264L1.40732 8.20987ZM4.25221 7.16528L4.59689 8.104L4.59692 8.10399L4.25221 7.16528ZM4.65883 6.60603L5.6581 6.64405L5.6581 6.64403L4.65883 6.60603ZM4.77391 3.57957L5.77318 3.61757L5.77318 3.61755L4.77391 3.57957ZM5.56429 3.00575L5.83679 2.0436L5.83678 2.04359L5.56429 3.00575ZM8.48029 3.83162L8.20779 4.79377L8.20782 4.79378L8.48029 3.83162ZM9.13821 3.618L8.35231 2.99965L8.3523 2.99965L9.13821 3.618ZM9.09992 11.2926C8.70925 10.9023 8.07609 10.9025 7.68571 11.2932C7.29533 11.6838 7.29556 12.317 7.68623 12.7074L9.09992 11.2926ZM10.4644 14.0698L9.75752 14.7771C10.148 15.1673 10.7807 15.1673 11.1712 14.7771L10.4644 14.0698ZM15.3138 10.6376C15.7044 10.2472 15.7047 9.61407 15.3143 9.2234C14.9239 8.83273 14.2908 8.8325 13.9001 9.22288L15.3138 10.6376ZM11.7973 1.85563C11.6458 2.04812 11.3542 2.04812 11.2027 1.85563L12.7743 0.618655C12.1251 -0.206218 10.8749 -0.206218 10.2257 0.618655L11.7973 1.85563ZM11.2026 1.85549L13.0759 4.23635L14.6477 2.99965L12.7744 0.618789L11.2026 1.85549ZM13.076 4.2365C13.4824 4.7528 14.1602 4.97278 14.7922 4.79378L14.2472 2.86946C14.3946 2.82772 14.5527 2.87897 14.6476 2.9995L13.076 4.2365ZM14.7922 4.79377L17.7082 3.96791L17.1632 2.0436L14.2472 2.86946L14.7922 4.79377ZM17.7081 3.96792C17.4734 4.0344 17.2361 3.86394 17.2268 3.61742L19.2254 3.54172C19.1856 2.49135 18.1727 1.75776 17.1632 2.04358L17.7081 3.96792ZM17.2268 3.61756L17.3419 6.64402L19.3404 6.56804L19.2254 3.54158L17.2268 3.61756ZM17.3419 6.6443C17.367 7.30102 17.7862 7.87753 18.4033 8.10404L19.0924 6.22653C19.2364 6.27938 19.3345 6.41413 19.3404 6.56777L17.3419 6.6443ZM18.4032 8.104L21.248 9.14859L21.9373 7.27116L19.0925 6.22657L18.4032 8.104ZM21.248 9.14859C21.0182 9.0642 20.9268 8.78603 21.064 8.58133L22.7251 9.69535C23.3106 8.82234 22.9228 7.63299 21.9373 7.27116L21.248 9.14859ZM21.064 8.58142L19.3769 11.0974L21.0381 12.2113L22.7251 9.69526L21.064 8.58142ZM19.3769 11.0975C19.0108 11.6435 19.0108 12.3565 19.3769 12.9025L21.0381 11.7888C21.1237 11.9165 21.1237 12.0835 21.0381 12.2112L19.3769 11.0975ZM19.3769 12.9026L21.064 15.4186L22.7251 14.3047L21.0381 11.7887L19.3769 12.9026ZM21.064 15.4187C20.9267 15.2139 21.0182 14.9358 21.2479 14.8515L21.9375 16.7288C22.9227 16.3669 23.3106 15.1777 22.7251 14.3047L21.064 15.4187ZM21.248 14.8514L18.4032 15.8961L19.0925 17.7735L21.9374 16.7289L21.248 14.8514ZM18.4033 15.896C17.7862 16.1225 17.367 16.699 17.3419 17.3558L19.3404 17.4323C19.3345 17.5859 19.2364 17.7207 19.0924 17.7735L18.4033 15.896ZM17.3419 17.356L17.2268 20.3824L19.2254 20.4584L19.3404 17.432L17.3419 17.356ZM17.2268 20.3826C17.2361 20.1362 17.4733 19.9656 17.7082 20.0321L17.1632 21.9564C18.1727 22.2423 19.1856 21.5086 19.2254 20.4583L17.2268 20.3826ZM17.7082 20.0321L14.7922 19.2063L14.2472 21.1306L17.1632 21.9564L17.7082 20.0321ZM14.7925 19.2064C14.16 19.027 13.4823 19.2475 13.076 19.7635L14.6475 21.0006C14.5528 21.1209 14.3948 21.1724 14.2469 21.1305L14.7925 19.2064ZM13.0759 19.7637L11.2026 22.1445L12.7744 23.3812L14.6477 21.0004L13.0759 19.7637ZM11.2028 22.1444C11.3543 21.9519 11.6457 21.9519 11.7973 22.1444L10.2257 23.3814C10.875 24.2062 12.125 24.2062 12.7743 23.3814L11.2028 22.1444ZM11.7974 22.1445L9.92411 19.7637L8.35231 21.0004L10.2256 23.3812L11.7974 22.1445ZM9.92408 19.7636C9.51784 19.2474 8.83993 19.0271 8.20751 19.2064L8.75306 21.1305C8.60537 21.1724 8.44718 21.121 8.35234 21.0004L9.92408 19.7636ZM8.2078 19.2063L5.29179 20.0321L5.83677 21.9564L8.75278 21.1306L8.2078 19.2063ZM5.29173 20.0321C5.52685 19.9655 5.76383 20.1363 5.77318 20.3825L3.77463 20.4584C3.81453 21.5085 4.82719 22.2424 5.83682 21.9564L5.29173 20.0321ZM5.77318 20.3824L5.6581 17.356L3.65955 17.432L3.77463 20.4584L5.77318 20.3824ZM5.6581 17.356C5.63311 16.6989 5.2136 16.1225 4.59689 15.8961L3.90751 17.7735C3.76371 17.7207 3.66541 17.586 3.65955 17.432L5.6581 17.356ZM4.59689 15.8961L1.75201 14.8514L1.06263 16.7289L3.90751 17.7735L4.59689 15.8961ZM1.75211 14.8515C1.98189 14.9359 2.07317 15.214 1.936 15.4186L0.274858 14.3048C-0.310434 15.1777 0.0771211 16.3669 1.06253 16.7288L1.75211 14.8515ZM1.93599 15.4186L3.62309 12.9026L1.96198 11.7887L0.274871 14.3047L1.93599 15.4186ZM3.62313 12.9025C3.98923 12.3565 3.98923 11.6435 3.62313 11.0975L1.96194 12.2112C1.87629 12.0835 1.87629 11.9165 1.96194 11.7888L3.62313 12.9025ZM3.6231 11.0974L1.93599 8.58141L0.274869 9.69526L1.96197 12.2113L3.6231 11.0974ZM1.93599 8.58141C2.07314 8.78594 1.98197 9.06415 1.752 9.14859L1.06264 7.27115C0.0770479 7.63304 -0.310401 8.82242 0.274866 9.69526L1.93599 8.58141ZM1.752 9.14859L4.59689 8.104L3.90753 6.22656L1.06264 7.27115L1.752 9.14859ZM4.59692 8.10399C5.21365 7.87752 5.63311 7.3011 5.6581 6.64405L3.65955 6.56802C3.66541 6.41404 3.76366 6.27939 3.9075 6.22657L4.59692 8.10399ZM5.6581 6.64403L5.77318 3.61757L3.77463 3.54158L3.65955 6.56804L5.6581 6.64403ZM5.77318 3.61755C5.76382 3.86382 5.52678 4.03446 5.2918 3.96791L5.83678 2.04359C4.82726 1.75769 3.81454 2.49148 3.77463 3.54159L5.77318 3.61755ZM5.29179 3.96791L8.20779 4.79377L8.75279 2.86946L5.83679 2.0436L5.29179 3.96791ZM8.20782 4.79378C8.8398 4.97275 9.5177 4.75289 9.92412 4.23635L8.3523 2.99965C8.44732 2.87889 8.6055 2.82775 8.75276 2.86946L8.20782 4.79378ZM9.92411 4.23635L11.7974 1.85549L10.2256 0.618787L8.35231 2.99965L9.92411 4.23635ZM7.68623 12.7074L9.75752 14.7771L11.1712 13.3624L9.09992 11.2926L7.68623 12.7074ZM11.1712 14.7771L15.3138 10.6376L13.9001 9.22288L9.75752 13.3624L11.1712 14.7771Z" fill="#F6643C"/>
</svg>
